<svg width="14" height="14" viewBox="0 0 14 14" fill="none" xmlns="http://www.w3.org/2000/svg">
<g clip-path="url(#clip0_1222_2703)">
<path fill-rule="evenodd" clip-rule="evenodd" d="M7 8C9.20914 8 11 6.20914 11 4L10.9998 3.95826C9.86164 3.92759 8.82571 3.48555 8.036 2.77641C7.21703 3.51184 6.13326 3.96 4.94528 3.96C4.26127 3.96 3.6109 3.81127 3.02569 3.54414C3.00872 3.69374 3 3.84585 3 4C3 6.20914 4.79086 8 7 8ZM8.41031 1.73652C9.02054 2.42555 9.88728 2.87995 10.8609 2.95039C10.3998 1.25039 8.84593 0 7 0C5.30186 0 3.85087 1.05819 3.27047 2.55113C3.77099 2.81222 4.34019 2.96 4.94528 2.96C6.02634 2.96 6.99644 2.48769 7.66169 1.73653C7.75659 1.62937 7.89286 1.56802 8.036 1.56802C8.17914 1.56802 8.31541 1.62937 8.41031 1.73652ZM0.512018 13.3674C1.55233 10.8061 4.06531 9.00003 7.00011 9.00003C9.93492 9.00003 12.4479 10.8061 13.4882 13.3674C13.6141 13.6773 13.3742 14 13.0397 14H0.960487C0.626011 14 0.386153 13.6773 0.512018 13.3674Z" fill="black"/>
</g>
<defs>
<clipPath id="clip0_1222_2703">
<rect width="14" height="14" fill="white"/>
</clipPath>
</defs>
</svg>
